<?xml version="1.0" encoding="utf-8"?>
<!-- Generator: Adobe Illustrator 18.1.0, SVG Export Plug-In . SVG Version: 6.00 Build 0)  -->
<!DOCTYPE svg PUBLIC "-//W3C//DTD SVG 1.1//EN" "http://www.w3.org/Graphics/SVG/1.1/DTD/svg11.dtd">
<svg version="1.1" id="Layer_1" xmlns="http://www.w3.org/2000/svg" xmlns:xlink="http://www.w3.org/1999/xlink" x="0px" y="0px"
	 viewBox="0 -11.3 612 375.5" enable-background="new 0 -11.3 612 375.5" xml:space="preserve">
<g id="group-d2">
	<path id="_x32__5_" fill="#FFFFFF" d="M532.7,346.7h11.5v17.4h11.9c30.6,0,55.8-23.9,55.8-54.6v-72.8c0-30.6-25.2-54.6-55.8-54.6
		h-11.9v16.1h-11.5v3.4h11.5v15.5h11.9c10.1,0,18.2,9.6,18.2,19.7v72.7c0,10.1-8.1,19.7-18.2,19.7h-11.9v14.1h-11.5"/>
	<path id="_x31__5_" fill="#FFFFFF" d="M532.7,188.9c0-3.7-3.1-6.9-6.7-6.9h-24.2c-3.7,0-6.7,3.2-6.7,6.9v168.3
		c0,3.7,3.1,6.9,6.7,6.9H526c3.7,0,6.7-3.2,6.7-6.9L532.7,188.9L532.7,188.9z"/>
</g>
<path id="i" fill="#FFFFFF" d="M476,182.2h-24.2c-3.7,0-6.7,3.1-6.7,6.7v168.3c0,3.7,3.1,6.7,6.7,6.7H476c3.7,0,6.7-3.1,6.7-6.7
	V188.9C482.7,185.3,479.7,182.2,476,182.2z"/>
<g id="group-o">
	<path id="_x32_" fill="#FFFFFF" d="M342.6,256.9c-8.6,0-15.6,7-15.6,15.6s7,15.6,15.6,15.6s15.6-7,15.6-15.6
		C358.2,263.9,351.1,256.9,342.6,256.9z"/>
	<path id="_x31_" fill="#FFFFFF" d="M348.2,181.6v16.2h-11.5v-16.2c-47.6,3.1-85.4,42.5-85.4,91s37.8,88,85.5,91V347h11.5v16.5
		c47.7-2.9,85.5-42.5,85.5-91C433.8,224.1,396,184.7,348.2,181.6z M348.2,326.6v16.7h-11.5v-16.7c-27.2-2.9-48.7-26-48.7-54
		s21.4-51.3,48.7-54v-17.1h11.5v17.1c27.2,2.9,48.7,26,48.7,54C396.9,300.6,375.5,323.7,348.2,326.6z"/>
</g>
<g id="group-r">
	<path id="_x33_" fill="#FFFFFF" d="M196.8,295.9l5.5,8.7c-4.3,0.9-8.7,1.4-13,1.4h-7.2l29.2,58h42.2l-33.2-65.8
		c-4.6,2.4-9.5,4.3-14.5,5.7l-5.4-8.4"/>
	<path id="_x32__4_" fill="#FFFFFF" d="M166.3,280.6h11.5v15.8h11.6c30.3,0,56.3-26.5,56.3-56.8c0-36.1-27.5-57.4-56.3-57.4h-11.6
		V198h-11.5v3.5h11.5v15.8h6.7c12.2,0,23.7,6.3,23.7,22c0,15.9-11.5,22-23.7,22h-6.7v15.8h-11.5L166.3,280.6L166.3,280.6z"/>
	<path id="_x31__4_" fill="#FFFFFF" d="M166.3,197.8v-8.9c0-3.7-3.1-6.7-6.7-6.7h-24.2c-3.7,0-6.7,3.1-6.7,6.7v168.3
		c0,3.7,3.1,6.7,6.7,6.7h24.2c3.7,0,6.7-3.1,6.7-6.7v-76.7L166.3,197.8L166.3,197.8z"/>
</g>
<g id="group-d1">
	<path id="_x32__3_" fill="#FFFFFF" d="M37.6,346.7h11.5v17.4H61c30.6,0,55.8-23.9,55.8-54.6v-72.8c0-30.6-25.2-54.6-55.8-54.6H49.1
		v16.1H37.6v3.4h11.5v15.5H61c10.1,0,18.2,9.6,18.2,19.7v72.7c0,10.1-8.1,19.7-18.2,19.7H49.1v14.1H37.6"/>
	<path id="_x31__3_" fill="#FFFFFF" d="M37.6,188.9c0-3.7-3.1-6.9-6.7-6.9H6.7c-3.7,0-6.7,3.2-6.7,6.9v168.3c0,3.7,3.1,6.9,6.7,6.9
		h24.2c3.7,0,6.7-3.2,6.7-6.9V188.9z"/>
</g>
<g id="group-p">
	<path id="_x32__2_" fill="#FFFFFF" d="M166.3,87h11.5v15.8h11.6c30.3,0,56.3-26.5,56.3-56.8c0-36.1-27.5-57.4-56.3-57.4h-11.6V4.4
		h-11.5v3.5h11.5v15.8h6.7c12.2,0,23.7,6.3,23.7,22c0,15.9-11.5,22-23.7,22h-6.7v15.8h-11.5L166.3,87L166.3,87z"/>
	<path id="_x31__2_" fill="#FFFFFF" d="M166.3,4.3v-8.9c0-3.7-3.1-6.7-6.7-6.7h-24.2c-3.7,0-6.7,3.1-6.7,6.7v168.3
		c0,3.7,3.1,6.7,6.7,6.7h24.2c3.7,0,6.7-3.1,6.7-6.7V87L166.3,4.3L166.3,4.3z"/>
</g>
<g id="group-u">
	<path id="_x32__1_" fill="#FFFFFF" d="M37.6,153.9h11.5V170c2.1,0.3,4.4,0.5,6.6,0.5H61c30.6,0,55.8-23.9,55.8-55.2V24.3V-4.6
		c0-3.7-3.1-6.7-6.7-6.7H86c-3.7,0-6.7,3.1-6.7,6.7v28.9l0,0v91.5c0,10.9-7.5,19.4-18.2,19.4l0,0h-5.2l0,0c-2.4,0-4.6-0.5-6.7-1.2
		v16.4H37.6L37.6,153.9L37.6,153.9z"/>
	<path id="_x31__1_" fill="#FFFFFF" d="M37.6-4.6c0-3.7-3.1-6.7-6.7-6.7H6.7C3.1-11.3,0-8.3,0-4.6v40.9V115
		c0,24.9,15.9,45.1,37.6,52.3V-4.6z"/>
</g>
</svg>
