<?xml version="1.0" encoding="utf-8"?>
<!-- Generator: Adobe Illustrator 18.1.0, SVG Export Plug-In . SVG Version: 6.00 Build 0)  -->
<!DOCTYPE svg PUBLIC "-//W3C//DTD SVG 1.1//EN" "http://www.w3.org/Graphics/SVG/1.1/DTD/svg11.dtd">
<svg version="1.1" id="Layer_1" xmlns="http://www.w3.org/2000/svg" xmlns:xlink="http://www.w3.org/1999/xlink" x="0px" y="0px"
	 viewBox="53.3 -11.5 3149.5 720" enable-background="new 53.3 -11.5 3149.5 720" xml:space="preserve">
<path fill="#FFFFFF" d="M1074.7,675.1h22.1v33.4h22.8c58.7,0,107-45.8,107-104.7V464.2c0-58.7-48.3-104.7-107-104.7h-22.8v30.9
	h-22.1v6.5h22.1v29.7h22.8c19.4,0,34.9,18.4,34.9,37.8v139.4c0,19.4-15.5,37.8-34.9,37.8h-22.8v27h-22.1 M1074.7,372.6
	c0-7.1-5.9-13.2-12.8-13.2h-46.4c-7.1,0-12.8,6.1-12.8,13.2v322.7c0,7.1,5.9,13.2,12.8,13.2h46.4c7.1,0,12.8-6.1,12.8-13.2V372.6
	L1074.7,372.6z M966,359.7h-46.4c-7.1,0-12.8,5.9-12.8,12.8v322.7c0,7.1,5.9,12.8,12.8,12.8H966c7.1,0,12.8-5.9,12.8-12.8V372.6
	C978.8,365.7,973.1,359.7,966,359.7z M710.2,503c-16.5,0-29.9,13.4-29.9,29.9c0,16.5,13.4,29.9,29.9,29.9
	c16.5,0,29.9-13.4,29.9-29.9C740.1,516.4,726.5,503,710.2,503z M720.9,358.6v31.1h-22.1v-31.1c-91.3,5.9-163.7,81.5-163.7,174.5
	s72.5,168.7,163.9,174.5v-31.8h22.1v31.6c91.5-5.6,163.9-81.5,163.9-174.5C885,440.1,812.6,364.5,720.9,358.6z M720.9,636.6v32
	h-22.1v-32c-52.2-5.6-93.4-49.9-93.4-103.5s41-98.4,93.4-103.5v-32.8h22.1v32.8c52.2,5.6,93.4,49.9,93.4,103.5
	C814.3,586.8,773.3,631,720.9,636.6z M430.6,577.7l10.5,16.7c-8.2,1.7-16.7,2.7-24.9,2.7h-13.8l56,111.2h80.9l-63.7-126.2
	c-8.8,4.6-18.2,8.2-27.8,10.9L437.5,577 M372.1,548.4h22.1v30.3h22.2c58.1,0,108-50.8,108-108.9c0-69.2-52.7-110.1-108-110.1h-22.2
	V390h-22.1v6.7h22.1V427H407c23.4,0,45.4,12.1,45.4,42.2c0,30.5-22.1,42.2-45.4,42.2h-12.8v30.3h-22.1V548.4L372.1,548.4z
	 M372.1,389.6v-17.1c0-7.1-5.9-12.8-12.8-12.8h-46.4c-7.1,0-12.8,5.9-12.8,12.8v322.7c0,7.1,5.9,12.8,12.8,12.8h46.4
	c7.1,0,12.8-5.9,12.8-12.8V548.2V389.6L372.1,389.6z M125.4,675.1h22.1v33.4h22.8c58.7,0,107-45.8,107-104.7V464.2
	c0-58.7-48.3-104.7-107-104.7h-22.8v30.9h-22.1v6.5h22.1v29.7h22.8c19.4,0,34.9,18.4,34.9,37.8v139.4c0,19.4-15.5,37.8-34.9,37.8
	h-22.8v27h-22.1 M125.4,372.6c0-7.1-5.9-13.2-12.8-13.2H66.1c-7.1,0-12.8,6.1-12.8,13.2v322.7c0,7.1,5.9,13.2,12.8,13.2h46.4
	c7.1,0,12.8-6.1,12.8-13.2C125.4,695.3,125.4,372.6,125.4,372.6z M372.1,177.2h22.1v30.3h22.2c58.1,0,108-50.8,108-108.9
	c0-69.2-52.7-110.1-108-110.1h-22.2v30.3h-22.1v6.7h22.1v30.3H407c23.4,0,45.4,12.1,45.4,42.2c0,30.5-22.1,42.2-45.4,42.2h-12.8
	v30.3h-22.1V177.2L372.1,177.2z M372.1,18.6V1.5c0-7.1-5.9-12.8-12.8-12.8h-46.4c-7.1,0-12.8,5.9-12.8,12.8v322.7
	c0,7.1,5.9,12.8,12.8,12.8h46.4c7.1,0,12.8-5.9,12.8-12.8V177.2V18.6L372.1,18.6z M125.4,305.5h22.1v30.9c4,0.6,8.4,1,12.7,1h10.2
	c58.7,0,107-45.8,107-105.8V57V1.5c0-7.1-5.9-12.8-12.8-12.8h-46.2c-7.1,0-12.8,5.9-12.8,12.8V57l0,0v175.4
	c0,20.9-14.4,37.2-34.9,37.2l0,0h-10l0,0c-4.6,0-8.8-1-12.8-2.3v31.4h-22.2V305.5L125.4,305.5z M125.4,1.5c0-7.1-5.9-12.8-12.8-12.8
	H66.1c-6.9,0-12.8,5.8-12.8,12.8V80v150.9c0,47.7,30.5,86.5,72.1,100.3V1.5z"/>
<g>
	<path fill="#FFFFFF" d="M1391.9,383.2h-27.4v295.4h27.4v26.9h-58.7V356.3h58.7V383.2z"/>
	<path fill="#FFFFFF" d="M1588.8,568.7c-0.7,13.3-2.9,25.2-6.6,35.7c-3.7,10.5-9,19.4-15.8,26.8c-6.8,7.4-15.3,13-25.4,16.9
		c-10.1,3.9-21.8,5.8-35.1,5.8c-13,0-24.6-2.5-35-7.6c-10.4-5.1-19.2-12.3-26.5-21.7c-7.3-9.4-12.9-20.8-16.9-34.1
		c-3.9-13.3-5.9-28.3-5.9-44.9v-47.5c0-16.5,2-31.4,5.9-44.8c3.9-13.4,9.7-24.8,17.1-34.2c7.5-9.4,16.6-16.7,27.5-21.8
		c10.8-5.1,23.1-7.7,36.8-7.7c12.5,0,23.5,1.9,33.1,5.7c9.6,3.8,17.8,9.3,24.5,16.6c6.7,7.3,12,16.3,15.7,27
		c3.8,10.7,5.9,23,6.5,36.9h-32.7c-0.7-10.1-2.1-18.8-4.1-26.2c-2-7.3-4.9-13.3-8.7-18.1c-3.8-4.8-8.5-8.3-14.1-10.6
		s-12.4-3.4-20.3-3.4c-9.4,0-17.6,1.9-24.4,5.7c-6.8,3.8-12.5,9.2-17,16.2c-4.5,7-7.8,15.4-10,25.3c-2.2,9.9-3.3,20.9-3.3,33v47.9
		c0,11.3,0.9,21.9,2.7,31.6c1.8,9.8,4.8,18.3,8.8,25.6c4.1,7.3,9.4,13,16,17.2c6.6,4.2,14.6,6.3,24,6.3c8.8,0,16.3-1.1,22.4-3.3
		c6.1-2.2,11-5.6,14.8-10.2c3.8-4.7,6.7-10.6,8.7-17.8c2-7.2,3.4-16,4.2-26.2H1588.8z"/>
	<path fill="#FFFFFF" d="M1621.6,545.9c0-15,1.9-28.1,5.7-39.3c3.8-11.2,9.1-20.6,15.7-28.2c6.7-7.5,14.5-13.2,23.4-17.1
		c9-3.8,18.6-5.7,28.8-5.7c10.4,0,20.1,1.9,29.2,5.7c9.1,3.8,16.9,9.5,23.6,17.1c6.7,7.5,11.9,16.9,15.7,28.2
		c3.8,11.3,5.7,24.4,5.7,39.3v18c0,14.8-1.9,27.9-5.7,39.1c-3.8,11.3-9.1,20.6-15.7,28.2c-6.7,7.5-14.5,13.2-23.4,17
		c-9,3.8-18.6,5.7-29,5.7c-10.4,0-20.1-1.9-29.1-5.7c-9-3.8-16.8-9.4-23.5-17c-6.7-7.5-11.9-16.9-15.7-28.2
		c-3.8-11.2-5.7-24.3-5.7-39.1V545.9z M1652.9,564c0,10.6,1.1,19.9,3.3,27.7c2.2,7.9,5.2,14.5,9,19.7c3.8,5.2,8.3,9.2,13.5,11.8
		c5.2,2.7,10.8,4,17,4c28.4,0,42.6-21.1,42.6-63.3v-18c0-10.5-1.1-19.7-3.3-27.6c-2.2-7.9-5.2-14.5-9-19.8c-3.8-5.3-8.4-9.3-13.6-12
		c-5.2-2.7-10.9-4.1-17.1-4.1c-6,0-11.6,1.4-16.8,4.1c-5.2,2.7-9.7,6.7-13.4,12c-3.8,5.3-6.7,11.9-8.9,19.8
		c-2.2,7.9-3.3,17.1-3.3,27.6V564z"/>
	<path fill="#FFFFFF" d="M1839.3,459.2l0.7,17.7c5.5-6.7,12.1-11.9,19.7-15.6c7.6-3.7,16.4-5.6,26.4-5.6c9.7,0,18.4,2.2,26.2,6.5
		c7.8,4.4,14,11.4,18.5,21.2c5.4-8.4,12.3-15.1,20.6-20.1c8.3-5.1,18.2-7.6,29.6-7.6c8.6,0,16.3,1.3,23,4c6.7,2.7,12.4,6.8,17,12.5
		c4.6,5.7,8.1,12.8,10.5,21.6c2.4,8.7,3.6,19.1,3.6,31.1v125.6H2004V524.6c0-8-0.8-14.7-2.3-20c-1.5-5.3-3.7-9.5-6.5-12.7
		c-2.8-3.2-6.2-5.4-10.2-6.6c-4-1.2-8.5-1.9-13.4-1.9c-4.9,0-9.4,1-13.3,3c-3.9,2-7.2,4.8-10,8.3c-2.8,3.5-5,7.7-6.7,12.4
		c-1.7,4.7-2.8,9.8-3.3,15.2v0.9v127.2h-31.5V524.7c0-7.4-0.7-13.8-2.2-19c-1.5-5.2-3.6-9.5-6.4-12.8c-2.8-3.3-6.2-5.7-10.2-7.2
		c-4-1.5-8.5-2.3-13.4-2.3c-8.7,0-15.7,2.2-21,6.4c-5.3,4.3-9.4,10-12.4,17.2v143.3H1810V459.2H1839.3z"/>
	<path fill="#FFFFFF" d="M2111.6,459.2l0.7,17.7c5.5-6.7,12.1-11.9,19.7-15.6c7.6-3.7,16.4-5.6,26.4-5.6c9.7,0,18.4,2.2,26.2,6.5
		c7.8,4.4,14,11.4,18.5,21.2c5.4-8.4,12.3-15.1,20.6-20.1c8.3-5.1,18.2-7.6,29.6-7.6c8.6,0,16.3,1.3,23,4c6.7,2.7,12.4,6.8,17,12.5
		c4.6,5.7,8.1,12.8,10.5,21.6c2.4,8.7,3.6,19.1,3.6,31.1v125.6h-31.1V524.6c0-8-0.8-14.7-2.3-20c-1.5-5.3-3.7-9.5-6.5-12.7
		s-6.2-5.4-10.2-6.6c-4-1.2-8.5-1.9-13.4-1.9s-9.4,1-13.3,3c-3.9,2-7.2,4.8-10,8.3c-2.8,3.5-5,7.7-6.7,12.4
		c-1.7,4.7-2.8,9.8-3.3,15.2v0.9v127.2h-31.5V524.7c0-7.4-0.7-13.8-2.2-19c-1.5-5.2-3.6-9.5-6.4-12.8c-2.8-3.3-6.2-5.7-10.2-7.2
		c-4-1.5-8.5-2.3-13.4-2.3c-8.7,0-15.7,2.2-21,6.4c-5.3,4.3-9.4,10-12.4,17.2v143.3h-31.1V459.2H2111.6z"/>
	<path fill="#FFFFFF" d="M2452.9,650.4c-1.1-2.4-1.9-5.4-2.6-9.1c-0.7-3.7-1.1-7.6-1.5-11.8c-2.2,3.3-4.8,6.4-7.7,9.4
		c-2.9,2.9-6.1,5.5-9.7,7.8c-3.6,2.2-7.5,4-11.7,5.3c-4.2,1.3-8.6,1.9-13.3,1.9c-8.4,0-15.9-1.2-22.7-3.5
		c-6.8-2.4-12.6-5.9-17.4-10.6c-4.8-4.7-8.5-10.5-11.1-17.4c-2.6-6.9-3.9-14.9-3.9-24.1s1.6-17.7,4.8-25.4s7.9-14.5,14.1-20.1
		c6.2-5.7,14.1-10.1,23.5-13.3c9.4-3.2,20.4-4.9,32.9-4.9h21.7v-20.3c0-11.4-2.5-19.6-7.6-24.4c-5.1-4.8-12.8-7.2-23.1-7.2
		c-5.1,0-9.6,0.8-13.5,2.4c-3.9,1.6-7.3,3.7-10,6.4c-2.7,2.7-4.8,5.9-6.2,9.5c-1.4,3.6-2.1,7.4-2.1,11.4h-31.3
		c0-6.8,1.5-13.6,4.5-20.4c3-6.8,7.3-12.8,12.9-18.2c5.6-5.4,12.4-9.7,20.4-13c8-3.3,17-4.9,26.9-4.9c8.8,0,16.9,1.1,24.3,3.2
		c7.4,2.1,13.7,5.5,19.1,10.2c5.4,4.7,9.5,10.8,12.5,18.2c2.9,7.4,4.4,16.5,4.4,27.2v94.2c0,3.2,0.1,6.5,0.4,10.1
		c0.2,3.5,0.6,7,1.1,10.4c0.5,3.4,1.2,6.7,1.9,9.8c0.8,3.1,1.6,6,2.6,8.6v2.8H2452.9z M2411.2,625.5c4.4,0,8.5-0.6,12.4-1.9
		c3.9-1.3,7.4-3,10.6-5c3.2-2.1,6-4.4,8.4-7.1c2.4-2.7,4.3-5.4,5.7-8.2v-45.6h-16.4c-7.5,0-14.3,0.8-20.4,2.5
		c-6.1,1.7-11.3,4-15.5,7.2c-4.3,3.1-7.6,7-9.9,11.6s-3.4,9.8-3.4,15.7c0,5.8,0.6,10.6,1.8,14.6c1.2,3.9,2.9,7.1,5.3,9.5
		c2.4,2.4,5.3,4.2,8.9,5.2C2402.1,624.9,2406.3,625.5,2411.2,625.5z"/>
	<path fill="#FFFFFF" d="M2557.3,459.2l0.9,20.7c5.8-7.7,12.6-13.6,20.4-17.8c7.8-4.2,16.5-6.4,26.1-6.4c7.8,0,14.8,1.3,21.2,3.8
		c6.4,2.5,11.8,6.6,16.3,12.2c4.5,5.6,7.9,12.8,10.3,21.6c2.4,8.8,3.6,19.4,3.6,31.9v125.3H2625V524.7c0-15-2.5-25.6-7.5-31.9
		c-5-6.3-12.5-9.5-22.5-9.5c-7.8,0-14.8,2.6-20.9,7.8c-6.2,5.2-11.2,12-14.9,20.3v138.9h-31.3V459.2H2557.3z"/>
	<path fill="#FFFFFF" d="M2696.4,546.1c0-15.7,1.5-29.2,4.6-40.6c3.1-11.4,7.4-20.8,13-28.2c5.6-7.4,12.3-12.8,20.2-16.3
		c7.9-3.5,16.6-5.3,26.2-5.3s17.8,1.9,24.8,5.7c7,3.8,13,9.3,17.9,16.5v-99h31.3v271.4h-28.6l-1.6-20.5c-4.9,7.8-11,13.7-18.2,17.8
		c-7.2,4.1-15.8,6.2-25.8,6.2c-9.4,0-18.1-1.9-25.9-5.6c-7.8-3.7-14.5-9.3-20.1-16.7c-5.6-7.4-10-16.8-13.1-28
		c-3.1-11.2-4.7-24.5-4.7-39.7V546.1z M2727.6,564c0,21.4,3.2,37.2,9.5,47.3c6.4,10.1,16.7,15.1,31.1,15.1c8.7,0,15.8-2.2,21.4-6.5
		c5.5-4.4,10-10,13.4-17v-96.5c-3.5-6.7-8.1-12.2-13.7-16.5c-5.6-4.3-12.6-6.4-20.9-6.4c-14.5,0-24.9,5.1-31.3,15.4
		s-9.5,26-9.5,47.4V564z"/>
	<path fill="#FFFFFF" d="M2950.8,653.9c-11.4,0-21.7-1.7-30.9-5.1c-9.2-3.4-17-8.6-23.4-15.6c-6.4-7-11.3-15.9-14.8-26.6
		c-3.4-10.7-5.1-23.4-5.1-38V547c0-16.8,2-31.1,6-42.7c4-11.6,9.3-21,15.8-28.3c6.5-7.2,14-12.5,22.5-15.6s17.3-4.8,26.3-4.8
		c12,0,22.3,2,30.7,5.9c8.5,3.9,15.4,9.7,20.9,17.4c5.4,7.7,9.4,17.1,11.8,28.3c2.5,11.2,3.7,24.1,3.7,38.7v18.2h-106.7v4.4
		c0,20.5,3.9,35.4,11.6,44.7c7.7,9.3,18.8,14,33.3,14c5.3,0,10.1-0.5,14.3-1.6c4.2-1.1,8.1-2.6,11.7-4.5c3.5-1.9,6.8-4.2,9.7-6.9
		c2.9-2.7,5.7-5.6,8.3-8.7l16.3,19.8c-2.6,3.7-5.7,7.2-9.4,10.6c-3.7,3.4-8,6.4-13.1,9.1c-5.1,2.7-10.9,4.8-17.4,6.4
		C2966.4,653.1,2959.1,653.9,2950.8,653.9z M2947.3,482.5c-5.4,0-10.4,0.8-15,2.5c-4.6,1.7-8.6,4.6-12.1,8.7
		c-3.5,4.2-6.3,9.8-8.4,16.9c-2.1,7.1-3.4,16-3.9,26.7h75.3V533c-0.4-7.4-1.1-14.2-2.4-20.4c-1.2-6.2-3.2-11.5-5.8-16
		c-2.7-4.5-6.2-8-10.7-10.4C2959.8,483.7,2954.1,482.5,2947.3,482.5z"/>
	<path fill="#FFFFFF" d="M3130.9,488.5c-2.5-0.5-4.8-0.8-6.9-1c-2.1-0.2-4.5-0.3-7.2-0.3c-8.5,0-15.5,2.4-20.9,7.1
		c-5.5,4.7-9.7,11.1-12.6,19.3v136.8h-31.3V459.2h30.4l0.5,19.4c3.9-7.1,8.7-12.7,14.6-16.8c5.8-4.1,12.8-6.2,20.9-6.2
		c0.9,0,2,0.1,3.3,0.3c1.2,0.2,2.4,0.4,3.6,0.6c1.2,0.2,2.3,0.5,3.3,0.8c1,0.3,1.7,0.6,2.2,0.8L3130.9,488.5z"/>
	<path fill="#FFFFFF" d="M3143.9,356.3h58.8v349.2h-58.8v-26.9h27.7V383.2h-27.7V356.3z"/>
</g>
</svg>
